# xmcd
#
# Track frame offsets: 
#        182
#        21065
#        45795
#        72640
#        102507
#        117615
#        143145
#        172205
#        190607
#        209795
#        231407
#
# Disc length: 3320 seconds
#
# Revision: 3
# Processed by: cddbd v1.5.2PL0 Copyright (c) Steve Scherf et al.
# Submitted via: ExactAudioCopyFreeDBPlugin 1.0
#
DISCID=a80cf60b
DTITLE=Joe Louis Walker - JLW
DYEAR=1994
DGENRE=Blues
TTITLE0=I Can't Get You Off My Mind
TTITLE1=I Need Your Lovin' Every Day
TTITLE2=Rain On My Mind
TTITLE3=Inner City Man
TTITLE4=On That Powerline
TTITLE5=Hold On
TTITLE6=12-Step Lovin'
TTITLE7=Alone
TTITLE8=Got To Find My Baby
TTITLE9=Lost The Will To Love Me
TTITLE10=Going To Canada
EXTD=
EXTT0=
EXTT1=
EXTT2=
EXTT3=
EXTT4=
EXTT5=
EXTT6=
EXTT7=
EXTT8=
EXTT9=
EXTT10=
PLAYORDER=
